<svg xmlns="http://www.w3.org/2000/svg" xmlns:xlink="http://www.w3.org/1999/xlink" id="visual" version="1.1" viewBox="0 504.53 900 96.47"><path d="M0 531L25 526C50 521 100 511 150 512.3C200 513.7 250 526.3 300 529.3C350 532.3 400 525.7 450 519.3C500 513 550 507 600 505.2C650 503.3 700 505.7 750 509.3C800 513 850 518 875 520.5L900 523L900 601L875 601C850 601 800 601 750 601C700 601 650 601 600 601C550 601 500 601 450 601C400 601 350 601 300 601C250 601 200 601 150 601C100 601 50 601 25 601L0 601Z" fill="#ecfccb"/><path d="M0 527L25 530.5C50 534 100 541 150 542.8C200 544.7 250 541.3 300 540.8C350 540.3 400 542.7 450 541.7C500 540.7 550 536.3 600 534.8C650 533.3 700 534.7 750 536.7C800 538.7 850 541.3 875 542.7L900 544L900 601L875 601C850 601 800 601 750 601C700 601 650 601 600 601C550 601 500 601 450 601C400 601 350 601 300 601C250 601 200 601 150 601C100 601 50 601 25 601L0 601Z" fill="#e8fcc0"/><path d="M0 563L25 558.7C50 554.3 100 545.7 150 545C200 544.3 250 551.7 300 551.8C350 552 400 545 450 543.7C500 542.3 550 546.7 600 549.7C650 552.7 700 554.3 750 553C800 551.7 850 547.3 875 545.2L900 543L900 601L875 601C850 601 800 601 750 601C700 601 650 601 600 601C550 601 500 601 450 601C400 601 350 601 300 601C250 601 200 601 150 601C100 601 50 601 25 601L0 601Z" fill="#e3fbb4"/><path d="M0 556L25 556.2C50 556.3 100 556.7 150 556.8C200 557 250 557 300 559.2C350 561.3 400 565.7 450 568.2C500 570.7 550 571.3 600 568.8C650 566.3 700 560.7 750 558.8C800 557 850 559 875 560L900 561L900 601L875 601C850 601 800 601 750 601C700 601 650 601 600 601C550 601 500 601 450 601C400 601 350 601 300 601C250 601 200 601 150 601C100 601 50 601 25 601L0 601Z" fill="#defaa9"/><path d="M0 581L25 581.8C50 582.7 100 584.3 150 585C200 585.7 250 585.3 300 584.8C350 584.3 400 583.7 450 583.3C500 583 550 583 600 583.2C650 583.3 700 583.7 750 584.3C800 585 850 586 875 586.5L900 587L900 601L875 601C850 601 800 601 750 601C700 601 650 601 600 601C550 601 500 601 450 601C400 601 350 601 300 601C250 601 200 601 150 601C100 601 50 601 25 601L0 601Z" fill="#d9f99d"/></svg>