<svg xmlns="http://www.w3.org/2000/svg" xmlns:xlink="http://www.w3.org/1999/xlink" id="visual" version="1.1" viewBox="0 0 900 93.47"><path d="M0 67L25 72C50 77 100 87 150 85.7C200 84.3 250 71.7 300 68.7C350 65.7 400 72.3 450 78.7C500 85 550 91 600 92.8C650 94.7 700 92.3 750 88.7C800 85 850 80 875 77.5L900 75L900 0L875 0C850 0 800 0 750 0C700 0 650 0 600 0C550 0 500 0 450 0C400 0 350 0 300 0C250 0 200 0 150 0C100 0 50 0 25 0L0 0Z" fill="#ecfccb"/><path d="M0 71L25 67.5C50 64 100 57 150 55.2C200 53.3 250 56.7 300 57.2C350 57.7 400 55.3 450 56.3C500 57.3 550 61.7 600 63.2C650 64.7 700 63.3 750 61.3C800 59.3 850 56.7 875 55.3L900 54L900 0L875 0C850 0 800 0 750 0C700 0 650 0 600 0C550 0 500 0 450 0C400 0 350 0 300 0C250 0 200 0 150 0C100 0 50 0 25 0L0 0Z" fill="#e8fcc0"/><path d="M0 35L25 39.3C50 43.7 100 52.3 150 53C200 53.7 250 46.3 300 46.2C350 46 400 53 450 54.3C500 55.7 550 51.3 600 48.3C650 45.3 700 43.7 750 45C800 46.3 850 50.7 875 52.8L900 55L900 0L875 0C850 0 800 0 750 0C700 0 650 0 600 0C550 0 500 0 450 0C400 0 350 0 300 0C250 0 200 0 150 0C100 0 50 0 25 0L0 0Z" fill="#e3fbb4"/><path d="M0 42L25 41.8C50 41.7 100 41.3 150 41.2C200 41 250 41 300 38.8C350 36.7 400 32.3 450 29.8C500 27.3 550 26.7 600 29.2C650 31.7 700 37.3 750 39.2C800 41 850 39 875 38L900 37L900 0L875 0C850 0 800 0 750 0C700 0 650 0 600 0C550 0 500 0 450 0C400 0 350 0 300 0C250 0 200 0 150 0C100 0 50 0 25 0L0 0Z" fill="#defaa9"/><path d="M0 17L25 16.2C50 15.3 100 13.7 150 13C200 12.3 250 12.7 300 13.2C350 13.7 400 14.3 450 14.7C500 15 550 15 600 14.8C650 14.7 700 14.3 750 13.7C800 13 850 12 875 11.5L900 11L900 0L875 0C850 0 800 0 750 0C700 0 650 0 600 0C550 0 500 0 450 0C400 0 350 0 300 0C250 0 200 0 150 0C100 0 50 0 25 0L0 0Z" fill="#d9f99d"/></svg>